<svg xmlns="http://www.w3.org/2000/svg" viewBox="0 0 418 554"><g fill="#ff5600" stroke="#242422" stroke-width="3" stroke-linejoin="round"><path d="M78 156 C86 152 96 152 103 157 L103 184 C96 189 86 189 79 184Z"/><path d="M111 157 C118 152 128 152 136 156 L135 184 C128 189 118 189 111 184Z"/><path d="M79 190 C86 186 96 186 103 190 L103 216 C96 221 86 221 79 216Z"/><path d="M111 190 C118 186 128 186 135 190 L135 216 C128 221 118 221 111 216Z"/><path d="M81 222 C88 218 97 218 103 222 L103 247 C97 252 88 252 82 247Z"/><path d="M111 222 C117 218 126 218 133 222 L132 247 C126 252 117 252 111 247Z"/></g></svg>
