<svg xmlns="http://www.w3.org/2000/svg" viewBox="0 0 418 554"><g fill="#ff5600" stroke="#242422" stroke-width="3" stroke-linejoin="round"><path d="M269 96 C282 89 300 88 311 97 L311 142 L292 137 L271 119Z"/><path d="M313 97 C324 88 342 89 355 96 L353 119 L332 137 L313 142Z"/><path d="M266 125 C278 121 290 131 301 145 L306 198 C295 211 281 220 269 218 C262 190 260 151 266 125Z"/><path d="M358 125 C364 151 362 190 355 218 C343 220 329 211 318 198 L323 145 C334 131 346 121 358 125Z"/><path d="M304 146 L311 141 L318 146 L316 213 L311 224 L306 213Z"/></g></svg>
