<svg xmlns="http://www.w3.org/2000/svg" viewBox="0 0 418 554"><g fill="#ff5600" stroke="#242422" stroke-width="3" stroke-linejoin="round"><path d="M35 194 C42 187 53 190 57 199 L51 243 C47 254 38 257 32 250 C29 233 30 211 35 194Z"/><path d="M157 199 C161 190 172 187 179 194 C184 211 185 233 182 250 C176 257 167 254 163 243Z"/><path d="M232 198 C239 191 249 193 253 202 L248 243 C244 254 235 257 230 250 C227 234 228 214 232 198Z"/><path d="M369 202 C373 193 383 191 390 198 C394 214 395 234 392 250 C387 257 378 254 374 243Z"/></g></svg>
